<svg width="20" height="20" viewBox="0 0 20 20" fill="none" xmlns="http://www.w3.org/2000/svg">
<g opacity="0.6">
<path d="M12.5781 1.69961C12.9095 1.69961 13.1781 1.43098 13.1781 1.09961C13.1781 0.768239 12.9095 0.499609 12.5781 0.499609V1.69961ZM12.5781 0.499609L1.23438 0.499609V1.69961L12.5781 1.69961V0.499609Z" fill="white"/>
<path d="M12.5781 19.5004C12.9095 19.5004 13.1781 19.2318 13.1781 18.9004C13.1781 18.569 12.9095 18.3004 12.5781 18.3004L12.5781 19.5004ZM12.5781 18.3004L1.23438 18.3004L1.23437 19.5004L12.5781 19.5004L12.5781 18.3004Z" fill="white"/>
<line x1="0.634375" y1="19.5" x2="0.634375" y2="0.5" stroke="white" stroke-width="1.2"/>
<path d="M19.1901 10.1928C19.4244 9.9585 19.4244 9.57861 19.1901 9.34429L15.3717 5.52591C15.1374 5.2916 14.7575 5.2916 14.5232 5.52591C14.2889 5.76023 14.2889 6.14013 14.5232 6.37444L17.9173 9.76855L14.5232 13.1627C14.2889 13.397 14.2889 13.7769 14.5232 14.0112C14.7575 14.2455 15.1374 14.2455 15.3717 14.0112L19.1901 10.1928ZM5.63623 10.3686H18.7658V9.16855H5.63623V10.3686Z" fill="white"/>
</g>
</svg>
