<svg width="17" height="20" viewBox="0 0 17 20" fill="none" xmlns="http://www.w3.org/2000/svg">
<g opacity="0.6">
<path d="M3.4375 19.625C4.00704 19.625 4.46875 19.1633 4.46875 18.5938C4.46875 18.0242 4.00704 17.5625 3.4375 17.5625C2.86796 17.5625 2.40625 18.0242 2.40625 18.5938C2.40625 19.1633 2.86796 19.625 3.4375 19.625Z" fill="white"/>
<path d="M4.125 16.1875H2.75V13.4375H4.125C4.48967 13.4375 4.83941 13.2926 5.09727 13.0348C5.35513 12.7769 5.5 12.4272 5.5 12.0625C5.5 11.6978 5.35513 11.3481 5.09727 11.0902C4.83941 10.8324 4.48967 10.6875 4.125 10.6875H2.75C2.38533 10.6875 2.03559 10.8324 1.77773 11.0902C1.51987 11.3481 1.375 11.6978 1.375 12.0625V12.4062H0V12.0625C0.000909628 11.3334 0.290933 10.6345 0.806461 10.119C1.32199 9.60343 2.02093 9.31341 2.75 9.3125H4.125C4.85435 9.3125 5.55382 9.60223 6.06954 10.118C6.58527 10.6337 6.875 11.3332 6.875 12.0625C6.875 12.7918 6.58527 13.4913 6.06954 14.007C5.55382 14.5228 4.85435 14.8125 4.125 14.8125V16.1875Z" fill="white"/>
<path d="M16.2938 5.39407L11.4813 0.581566C11.421 0.514098 11.3467 0.460664 11.2635 0.425029C11.1804 0.389394 11.0904 0.372425 11 0.375316H4.125C3.76066 0.376404 3.41156 0.521619 3.15393 0.779246C2.8963 1.03687 2.75109 1.38598 2.75 1.75032V7.25032H4.125V1.75032H9.625V5.87532C9.62609 6.23965 9.7713 6.58876 10.0289 6.84639C10.2866 7.10401 10.6357 7.24923 11 7.25032H15.125V18.2503H6.875V19.6253H15.125C15.4893 19.6242 15.8384 19.479 16.0961 19.2214C16.3537 18.9638 16.4989 18.6147 16.5 18.2503V5.87532C16.5024 5.78496 16.4852 5.69516 16.4496 5.61208C16.414 5.529 16.3609 5.45462 16.2938 5.39407ZM11 5.87532V2.02532L14.85 5.87532H11Z" fill="white"/>
</g>
</svg>
