<svg width="19" height="18" viewBox="0 0 19 18" fill="none" xmlns="http://www.w3.org/2000/svg">
<path opacity="0.8" fill-rule="evenodd" clip-rule="evenodd" d="M18.2311 12.0331H14.5204C12.7815 12.0331 11.3662 10.6187 11.3652 8.88069C11.3652 7.14086 12.7806 5.72553 14.5204 5.72461H18.2311C18.6106 5.72461 18.9186 6.03261 18.9186 6.41211C18.9186 6.79161 18.6106 7.09961 18.2311 7.09961H14.5204C13.5387 7.10053 12.7402 7.89894 12.7402 8.87978C12.7402 9.85969 13.5396 10.6581 14.5204 10.6581H18.2311C18.6106 10.6581 18.9186 10.9661 18.9186 11.3456C18.9186 11.7251 18.6106 12.0331 18.2311 12.0331Z" fill="white"/>
<path opacity="0.8" fill-rule="evenodd" clip-rule="evenodd" d="M14.9403 9.50977H14.6543C14.2748 9.50977 13.9668 9.20177 13.9668 8.82227C13.9668 8.44277 14.2748 8.13477 14.6543 8.13477H14.9403C15.3198 8.13477 15.6278 8.44277 15.6278 8.82227C15.6278 9.20177 15.3198 9.50977 14.9403 9.50977Z" fill="white"/>
<g opacity="0.8">
<path opacity="0.6" fill-rule="evenodd" clip-rule="evenodd" d="M5.49817 1.58691C3.22483 1.58691 1.375 3.43675 1.375 5.71008V12.289C1.375 14.5623 3.22483 16.4122 5.49817 16.4122H13.4218C15.6952 16.4122 17.5441 14.5623 17.5441 12.289V5.71008C17.5441 3.43675 15.6952 1.58691 13.4218 1.58691H5.49817ZM13.4218 17.7872H5.49817C2.46675 17.7872 0 15.3204 0 12.289V5.71008C0 2.67775 2.46675 0.211914 5.49817 0.211914H13.4218C16.4533 0.211914 18.9191 2.67775 18.9191 5.71008V12.289C18.9191 15.3204 16.4533 17.7872 13.4218 17.7872Z" fill="white"/>
</g>
<path fill-rule="evenodd" clip-rule="evenodd" d="M9.79479 5.74707H4.8457C4.4662 5.74707 4.1582 5.43907 4.1582 5.05957C4.1582 4.68007 4.4662 4.37207 4.8457 4.37207H9.79479C10.1743 4.37207 10.4823 4.68007 10.4823 5.05957C10.4823 5.43907 10.1743 5.74707 9.79479 5.74707Z" fill="white" fill-opacity="0.8"/>
</svg>
