<svg width="19" height="20" viewBox="0 0 19 20" fill="none" xmlns="http://www.w3.org/2000/svg">
<path opacity="0.6" fill-rule="evenodd" clip-rule="evenodd" d="M10.4958 3.47316H13.31C16.6925 3.47316 18.3425 5.279 18.3333 8.98233V13.4465C18.3333 16.9848 16.1517 19.1665 12.6042 19.1665H5.72C2.19083 19.1665 0 16.9848 0 13.4373V6.55316C0 2.75816 1.68667 0.833164 5.01417 0.833164H6.4625C7.31592 0.823998 8.1125 1.21816 8.635 1.88733L9.44167 2.95983C9.69833 3.28066 10.0833 3.47316 10.4958 3.47316ZM4.92188 13.0157H13.4102C13.786 13.0157 14.0885 12.704 14.0885 12.3282C14.0885 11.9432 13.786 11.6407 13.4102 11.6407H4.92188C4.53688 11.6407 4.23438 11.9432 4.23438 12.3282C4.23438 12.704 4.53688 13.0157 4.92188 13.0157Z" fill="white"/>
</svg>
