<svg width="52" height="52" viewBox="0 0 52 52" fill="none" xmlns="http://www.w3.org/2000/svg">
<path fill-rule="evenodd" clip-rule="evenodd" d="M6.50156 10.4004C5.46722 10.4004 4.47524 10.8113 3.74385 11.5427C3.01245 12.2741 2.60156 13.266 2.60156 14.3004V15.6004H49.4016V14.3004C49.4016 13.266 48.9907 12.2741 48.2593 11.5427C47.5279 10.8113 46.5359 10.4004 45.5016 10.4004H6.50156ZM49.4016 22.1004H2.60156V37.7004C2.60156 38.7347 3.01245 39.7267 3.74385 40.4581C4.47524 41.1895 5.46722 41.6004 6.50156 41.6004H45.5016C46.5359 41.6004 47.5279 41.1895 48.2593 40.4581C48.9907 39.7267 49.4016 38.7347 49.4016 37.7004V22.1004ZM7.80156 34.4504C7.80156 33.9332 8.00701 33.4372 8.3727 33.0715C8.7384 32.7058 9.23439 32.5004 9.75156 32.5004H13.6516C14.1687 32.5004 14.6647 32.7058 15.0304 33.0715C15.3961 33.4372 15.6016 33.9332 15.6016 34.4504C15.6016 34.9676 15.3961 35.4636 15.0304 35.8292C14.6647 36.1949 14.1687 36.4004 13.6516 36.4004H9.75156C9.23439 36.4004 8.7384 36.1949 8.3727 35.8292C8.00701 35.4636 7.80156 34.9676 7.80156 34.4504ZM20.1516 32.5004C19.6344 32.5004 19.1384 32.7058 18.7727 33.0715C18.407 33.4372 18.2016 33.9332 18.2016 34.4504C18.2016 34.9676 18.407 35.4636 18.7727 35.8292C19.1384 36.1949 19.6344 36.4004 20.1516 36.4004H29.2516C29.7687 36.4004 30.2647 36.1949 30.6304 35.8292C30.9961 35.4636 31.2016 34.9676 31.2016 34.4504C31.2016 33.9332 30.9961 33.4372 30.6304 33.0715C30.2647 32.7058 29.7687 32.5004 29.2516 32.5004H20.1516Z" fill="white"/>
</svg>
