<svg width="18" height="18" viewBox="0 0 18 18" fill="none" xmlns="http://www.w3.org/2000/svg">
<path d="M9 16.875C4.6575 16.875 1.125 13.3425 1.125 9C1.125 4.6575 4.6575 1.125 9 1.125C13.3425 1.125 16.875 4.6575 16.875 9C16.875 13.3425 13.3425 16.875 9 16.875ZM9 2.25C5.27625 2.25 2.25 5.27625 2.25 9C2.25 12.7238 5.27625 15.75 9 15.75C12.7238 15.75 15.75 12.7238 15.75 9C15.75 5.27625 12.7238 2.25 9 2.25Z" fill="#DDF247"/>
<path d="M9 7.59375C9.46599 7.59375 9.84375 7.21599 9.84375 6.75C9.84375 6.28401 9.46599 5.90625 9 5.90625C8.53401 5.90625 8.15625 6.28401 8.15625 6.75C8.15625 7.21599 8.53401 7.59375 9 7.59375Z" fill="#DDF247"/>
<path d="M9 13.5C8.685 13.5 8.4375 13.2525 8.4375 12.9375V9.5625C8.4375 9.2475 8.685 9 9 9C9.315 9 9.5625 9.2475 9.5625 9.5625V12.9375C9.5625 13.2525 9.315 13.5 9 13.5Z" fill="#DDF247"/>
</svg>
