<svg width="32" height="33" viewBox="0 0 32 33" fill="none" xmlns="http://www.w3.org/2000/svg">
<path d="M5.92325 6.4232L5.9232 6.42325C5.68886 6.65766 5.55721 6.97554 5.55721 7.307C5.55721 7.63846 5.68886 7.95634 5.9232 8.19075L5.92326 8.19082L10.1693 12.4348L10.1692 12.4348L10.1723 12.4378C10.4081 12.6655 10.7238 12.7915 11.0516 12.7887C11.3793 12.7858 11.6928 12.6544 11.9246 12.4226C12.1564 12.1908 12.2878 11.8773 12.2907 11.5496C12.2935 11.2218 12.1675 10.9061 11.9398 10.6703L11.9398 10.6703L11.9367 10.6672L7.69075 6.4232C7.45634 6.18886 7.13846 6.05721 6.807 6.05721C6.47554 6.05721 6.15766 6.18886 5.92325 6.4232ZM21.8328 20.5652L21.8328 20.5652C21.5983 20.3309 21.2805 20.1992 20.949 20.1992C20.6175 20.1992 20.2997 20.3309 20.0653 20.5652L20.0652 20.5653C19.8309 20.7997 19.6992 21.1175 19.6992 21.449C19.6992 21.7805 19.8309 22.0983 20.0652 22.3328L20.0652 22.3328L24.3092 26.5768L24.3092 26.5768L24.3123 26.5798C24.5481 26.8075 24.8638 26.9335 25.1916 26.9307C25.5193 26.9278 25.8328 26.7964 26.0646 26.5646C26.2964 26.3328 26.4278 26.0193 26.4307 25.6916C26.4335 25.3638 26.3075 25.0481 26.0798 24.8123L26.0798 24.8123L26.0768 24.8092L21.8328 20.5652ZM26.0771 6.4255L26.0767 6.4252C25.8423 6.19086 25.5245 6.05921 25.193 6.05921C24.8615 6.05921 24.5437 6.19086 24.3092 6.4252L24.3092 6.42522L20.0652 10.6692L20.0652 10.6692L20.0622 10.6723C19.8345 10.9081 19.7085 11.2238 19.7113 11.5516C19.7142 11.8793 19.8456 12.1928 20.0774 12.4246C20.3092 12.6564 20.6227 12.7878 20.9504 12.7907C21.2782 12.7935 21.5939 12.6675 21.8297 12.4398L21.8297 12.4398L21.8328 12.4367L26.0768 8.19074L26.0771 8.1905C26.3106 7.95619 26.4418 7.63884 26.4418 7.308C26.4418 6.97716 26.3106 6.65981 26.0771 6.4255ZM11.9348 20.5653L11.9348 20.5652C11.7003 20.3309 11.3825 20.1992 11.051 20.1992C10.7195 20.1992 10.4017 20.3309 10.1672 20.5652L10.1672 20.5652L5.92322 24.8092L5.9232 24.8092L5.92018 24.8123C5.69248 25.0481 5.56649 25.3638 5.56934 25.6916C5.57218 26.0193 5.70364 26.3328 5.9354 26.5646C6.16717 26.7964 6.48068 26.9278 6.80843 26.9307C7.13617 26.9335 7.45193 26.8075 7.68768 26.5798L7.6877 26.5798L7.69078 26.5768L11.9348 22.3328L11.9348 22.3328C12.1691 22.0983 12.3008 21.7805 12.3008 21.449C12.3008 21.1175 12.1691 20.7997 11.9348 20.5653ZM16.8839 2.61612C16.6495 2.3817 16.3315 2.25 16 2.25C15.6685 2.25 15.3505 2.3817 15.1161 2.61612C14.8817 2.85054 14.75 3.16848 14.75 3.5V9.5C14.75 9.83152 14.8817 10.1495 15.1161 10.3839C15.3505 10.6183 15.6685 10.75 16 10.75C16.3315 10.75 16.6495 10.6183 16.8839 10.3839C17.1183 10.1495 17.25 9.83152 17.25 9.5V3.5C17.25 3.16848 17.1183 2.85054 16.8839 2.61612ZM16.8839 22.6161C16.6495 22.3817 16.3315 22.25 16 22.25C15.6685 22.25 15.3505 22.3817 15.1161 22.6161C14.8817 22.8505 14.75 23.1685 14.75 23.5V29.5C14.75 29.8315 14.8817 30.1495 15.1161 30.3839C15.3505 30.6183 15.6685 30.75 16 30.75C16.3315 30.75 16.6495 30.6183 16.8839 30.3839C17.1183 30.1495 17.25 29.8315 17.25 29.5V23.5C17.25 23.1685 17.1183 22.8505 16.8839 22.6161ZM29.8839 17.3839C30.1183 17.1495 30.25 16.8315 30.25 16.5C30.25 16.1685 30.1183 15.8505 29.8839 15.6161C29.6495 15.3817 29.3315 15.25 29 15.25H23C22.6685 15.25 22.3505 15.3817 22.1161 15.6161C21.8817 15.8505 21.75 16.1685 21.75 16.5C21.75 16.8315 21.8817 17.1495 22.1161 17.3839C22.3505 17.6183 22.6685 17.75 23 17.75H29C29.3315 17.75 29.6495 17.6183 29.8839 17.3839ZM9.88388 17.3839C10.1183 17.1495 10.25 16.8315 10.25 16.5C10.25 16.1685 10.1183 15.8505 9.88388 15.6161C9.64946 15.3817 9.33152 15.25 9 15.25H3C2.66848 15.25 2.35054 15.3817 2.11612 15.6161C1.8817 15.8505 1.75 16.1685 1.75 16.5C1.75 16.8315 1.8817 17.1495 2.11612 17.3839C2.35054 17.6183 2.66848 17.75 3 17.75H9C9.33152 17.75 9.64946 17.6183 9.88388 17.3839Z" fill="url(#paint0_linear_4948_14934)" stroke="url(#paint1_linear_4948_14934)" stroke-width="0.5"/>
<defs>
<linearGradient id="paint0_linear_4948_14934" x1="16" y1="2.5" x2="9" y2="30.5" gradientUnits="userSpaceOnUse">
<stop stop-color="#DDF247"/>
<stop offset="1" stop-color="#DDF247" stop-opacity="0.1"/>
</linearGradient>
<linearGradient id="paint1_linear_4948_14934" x1="16" y1="2.5" x2="9" y2="30.5" gradientUnits="userSpaceOnUse">
<stop stop-color="#DDF247"/>
<stop offset="1" stop-color="#DDF247" stop-opacity="0.1"/>
</linearGradient>
</defs>
</svg>
