<svg width="39" height="39" viewBox="0 0 39 39" fill="none" xmlns="http://www.w3.org/2000/svg">
<path d="M4.50289 19.5412C4.50289 11.1446 11.3097 4.33785 19.7062 4.33785C28.1028 4.33785 34.9096 11.1446 34.9096 19.5412C34.9096 27.9378 28.1028 34.7445 19.7062 34.7445C11.3097 34.7445 4.50289 27.9378 4.50289 19.5412Z" stroke="white" stroke-width="0.675704"/>
<g filter="url(#filter0_f_6552_15301)">
<path d="M4.50289 19.5412C4.50289 11.1446 11.3097 4.33785 19.7062 4.33785C28.1028 4.33785 34.9096 11.1446 34.9096 19.5412C34.9096 27.9378 28.1028 34.7445 19.7062 34.7445C11.3097 34.7445 4.50289 27.9378 4.50289 19.5412Z" stroke="white" stroke-width="0.675704"/>
</g>
<path d="M27.0312 12.5338L12.0374 18.3156C11.0142 18.7266 11.0201 19.2975 11.8497 19.552L15.6992 20.7529L24.6058 15.1334C25.027 14.8771 25.4118 15.015 25.0955 15.2957L17.8793 21.8083H17.8777L17.8793 21.8091L17.6138 25.777C18.0028 25.777 18.1745 25.5986 18.3927 25.388L20.2625 23.5698L24.1517 26.4425C24.8688 26.8375 25.3838 26.6345 25.5623 25.7787L28.1154 13.7465C28.3767 12.6987 27.7154 12.2243 27.0312 12.5338Z" fill="white"/>
<defs>
<filter id="filter0_f_6552_15301" x="0.541037" y="0.375998" width="38.3305" height="38.33" filterUnits="userSpaceOnUse" color-interpolation-filters="sRGB">
<feFlood flood-opacity="0" result="BackgroundImageFix"/>
<feBlend mode="normal" in="SourceGraphic" in2="BackgroundImageFix" result="shape"/>
<feGaussianBlur stdDeviation="1.812" result="effect1_foregroundBlur_6552_15301"/>
</filter>
</defs>
</svg>
